<?xml version="1.0" encoding="utf-8"?>
<!-- Generator: Adobe Illustrator 22.1.0, SVG Export Plug-In . SVG Version: 6.00 Build 0)  -->
<svg version="1.1" id="Layer_1" xmlns="http://www.w3.org/2000/svg" xmlns:xlink="http://www.w3.org/1999/xlink" x="0px" y="0px"
	 viewBox="0 0 1920 1080" style="enable-background:new 0 0 1920 1080;" xml:space="preserve">
<style type="text/css">
	.st0{stroke:#000000;stroke-width:1.7272;stroke-linecap:round;stroke-linejoin:round;}
</style>
<g>
	<path class="st0" d="M1048.7,357.3l-15-17.2l-5.4-6.1l-5.4,6.1l-15,17.2l5.4,6.1l15-17.2l15,17.2L1048.7,357.3z"/>
	<path class="st0" d="M911.4,722.7l-15,17.2L891,746l-5.4-6.1l-15-17.2l5.4-6.1l15,17.2l15-17.2L911.4,722.7z"/>
	<path d="M1119,543.7c0-87.8-71.2-159-159-159s-159,71.2-159,159s71.2,159,159,159c0.2,0,0.3,0,0.5,0v-10.4c-0.2,0-0.3,0-0.5,0
		c-39.7,0-77-15.5-105.1-43.5s-43.5-65.4-43.5-105.1s15.5-77,43.5-105.1S920.3,395,960,395c39.7,0,77,15.5,105.1,43.5
		c28.1,28.1,43.5,65.4,43.5,105.1c0,32.4-10.3,63.3-29.4,88.8c-3.2-1.8-6.9-2.9-10.9-2.9c-12.1,0-22,9.8-22,22s9.8,22,22,22
		c12.1,0,22-9.8,22-22c0-4.4-1.3-8.5-3.6-12C1107,612.9,1119,579.7,1119,543.7z M1068.4,663.2c-6.4,0-11.6-5.2-11.6-11.6
		s5.2-11.6,11.6-11.6c6.4,0,11.6,5.2,11.6,11.6S1074.8,663.2,1068.4,663.2z M958.8,659.6c65.9,0,119.4-53.4,119.4-119.4
		s-53.4-119.4-119.4-119.4c-4.8,0-9.6,0.3-14.3,0.9v10.4c4.7-0.6,9.5-0.9,14.3-0.9c29.1,0,56.5,11.3,77.1,31.9
		c20.6,20.6,31.9,48,31.9,77.1c0,29.1-11.3,56.5-31.9,77.1c-20.6,20.6-48,31.9-77.1,31.9s-56.5-11.3-77.1-31.9
		c-20.6-20.6-31.9-48-31.9-77.1c0-3.8,0.2-7.6,0.6-11.4c1.1,0.2,2.3,0.3,3.5,0.3c13.5,0,24.4-10.9,24.4-24.4
		c0-13.5-10.9-24.4-24.4-24.4c-13.5,0-24.4,10.9-24.4,24.4c0,8.5,4.3,15.9,10.9,20.3c-0.6,5-1,10-1,15.2
		C839.5,606.1,892.9,659.6,958.8,659.6z M853.9,490.7c7.7,0,14,6.3,14,14c0,7.7-6.3,14-14,14c-7.7,0-14-6.3-14-14
		C839.9,497,846.2,490.7,853.9,490.7z"/>
	<g>
		<g>
			<path d="M1023.2,347v157.5c-12.9-21.6-36.5-36.1-63.5-36.1c-40.8,0-73.8,33.1-73.8,73.8c0,0.8,0,1.7,0.1,2.5h-0.1V733h10.4V580
				c12.9,21.6,36.5,36.1,63.5,36.1c39.1,0,71-30.3,73.6-68.7h0.2V347H1023.2z M958.8,529.8c6.4,0,11.6,5.2,11.6,11.6
				s-5.2,11.6-11.6,11.6s-11.6-5.2-11.6-11.6S952.4,529.8,958.8,529.8 M958.8,519.4c-12.1,0-22,9.8-22,22c0,12.1,9.8,22,22,22
				c12.1,0,22-9.8,22-22C980.8,529.3,971,519.4,958.8,519.4L958.8,519.4z M959.7,605.7c-35,0-63.5-28.5-63.5-63.5
				c0-35,28.5-63.5,63.5-63.5s63.5,28.5,63.5,63.5C1023.2,577.3,994.7,605.7,959.7,605.7z"/>
		</g>
	</g>
</g>
<g>
</g>
<g>
</g>
<g>
</g>
<g>
</g>
<g>
</g>
<g>
</g>
<g>
</g>
<g>
</g>
<g>
</g>
<g>
</g>
<g>
</g>
<g>
</g>
<g>
</g>
<g>
</g>
<g>
</g>
</svg>
