<svg xmlns="http://www.w3.org/2000/svg" viewBox="0 0 189.28 40">
  <defs>
    <style>
      .cls-1 {
        fill: #3498db;
      }

      .cls-2 {
        fill: #f60;
      }

      .cls-3 {
        fill: #747e8d;
      }
    </style>
  </defs>
  <g id="Group_4227" data-name="Group 4227" transform="translate(-70 0)">
    <path id="Path_15" data-name="Path 15" class="cls-1" d="M73.561,384.092l-1.456,1.67-.524.592-.524-.592-1.456-1.67.524-.592,1.456,1.67,1.456-1.67Z" transform="translate(7.157 -346.355)"/>
    <path id="Path_16" data-name="Path 16" class="cls-1" d="M210.952,3.162,209.5,1.492,208.971.9l-.514.592L207,3.162l.524.592,1.456-1.67,1.456,1.67Z" transform="translate(-116.903 -0.9)"/>
    <path id="Path_18" data-name="Path 18" class="cls-1" d="M98.23,13.9V29.191a7.169,7.169,0,0,0-13.33,3.66,2.04,2.04,0,0,0,.01.243H84.9V51.375h1.01V36.511A7.167,7.167,0,0,0,99.22,33.346h.019V13.9ZM91.978,31.637a1.126,1.126,0,1,1-1.126,1.126,1.127,1.127,0,0,1,1.126-1.126m0-1a2.136,2.136,0,1,0,2.136,2.136,2.136,2.136,0,0,0-2.136-2.136Zm.087,8.378a6.165,6.165,0,1,1,6.165-6.165A6.174,6.174,0,0,1,92.065,39.016Z" transform="translate(-6.657 -12.638)"/>
    <path id="Path_17" data-name="Path 17" class="cls-2" d="M30.874,66.936A15.437,15.437,0,1,0,15.437,82.373h.049v-1.01h-.049A14.417,14.417,0,1,1,27.01,75.558a2.135,2.135,0,1,0,1.078,1.854,2.108,2.108,0,0,0-.35-1.165A15.28,15.28,0,0,0,30.874,66.936ZM25.961,78.548a1.126,1.126,0,1,1,1.126-1.126A1.127,1.127,0,0,1,25.961,78.548ZM15.32,78.189a11.587,11.587,0,1,0,0-23.174,10.984,10.984,0,0,0-1.388.087v1.01a10.984,10.984,0,0,1,1.388-.087A10.584,10.584,0,1,1,4.8,65.5a1.914,1.914,0,0,0,.34.029,2.374,2.374,0,1,0-1.311-.4,12.283,12.283,0,0,0-.1,1.476A11.6,11.6,0,0,0,15.32,78.189Zm1.136-11.466A1.126,1.126,0,1,1,15.33,65.6,1.127,1.127,0,0,1,16.456,66.723ZM5.136,61.8A1.359,1.359,0,1,1,3.777,63.16,1.363,1.363,0,0,1,5.136,61.8Z" transform="translate(70 -46.588)"/>
    <path id="Path_812" data-name="Path 812" class="cls-3" d="M10.517-9.693a5.388,5.388,0,0,1-.35,1.963,4.609,4.609,0,0,1-.99,1.563,4.5,4.5,0,0,1-1.54,1.03,5.213,5.213,0,0,1-2,.37,5.2,5.2,0,0,1-1.993-.37A4.533,4.533,0,0,1,2.1-6.167a4.625,4.625,0,0,1-1-1.563A5.343,5.343,0,0,1,.75-9.693,5.343,5.343,0,0,1,1.1-11.657a4.625,4.625,0,0,1,1-1.563,4.533,4.533,0,0,1,1.543-1.03,5.2,5.2,0,0,1,1.993-.37,5.41,5.41,0,0,1,1.38.17,4.845,4.845,0,0,1,1.187.48,4.387,4.387,0,0,1,.97.753,4.579,4.579,0,0,1,.73.99,4.852,4.852,0,0,1,.457,1.187A5.646,5.646,0,0,1,10.517-9.693Zm-1.833,0a4.424,4.424,0,0,0-.213-1.423,3.051,3.051,0,0,0-.607-1.07,2.6,2.6,0,0,0-.957-.673,3.292,3.292,0,0,0-1.27-.233,3.292,3.292,0,0,0-1.27.233,2.628,2.628,0,0,0-.96.673,3.023,3.023,0,0,0-.61,1.07,4.424,4.424,0,0,0-.213,1.423A4.424,4.424,0,0,0,2.8-8.27,2.988,2.988,0,0,0,3.407-7.2a2.647,2.647,0,0,0,.96.67,3.292,3.292,0,0,0,1.27.233,3.292,3.292,0,0,0,1.27-.233,2.616,2.616,0,0,0,.957-.67A3.016,3.016,0,0,0,8.47-8.27,4.424,4.424,0,0,0,8.683-9.693Zm13.867-4.82v9.64H20.97V-11.1q0-.373.04-.807L18.1-6.433a.673.673,0,0,1-.633.393H17.21a.673.673,0,0,1-.633-.393L13.63-11.927q.02.22.033.433t.013.393v6.227H12.1v-9.64H13.45q.12,0,.207.007a.559.559,0,0,1,.157.033.34.34,0,0,1,.127.087.74.74,0,0,1,.11.16l2.887,5.353q.113.213.21.44t.19.467q.093-.247.193-.477t.213-.443l2.847-5.34a.673.673,0,0,1,.113-.16.371.371,0,0,1,.13-.087.559.559,0,0,1,.157-.033q.087-.007.207-.007Zm10.273,0v9.64H31.9a.81.81,0,0,1-.357-.07.834.834,0,0,1-.277-.237l-5.033-6.427q.04.44.04.813v5.92H24.7v-9.64h.94a1.677,1.677,0,0,1,.2.01.473.473,0,0,1,.147.04.481.481,0,0,1,.123.087,1.39,1.39,0,0,1,.133.15L31.29-7.773q-.02-.233-.033-.46t-.013-.42v-5.86Zm3.947,9.64h-1.8v-9.64h1.8Zm13.953-4.82a5.213,5.213,0,0,1-.353,1.947,4.472,4.472,0,0,1-.993,1.527,4.444,4.444,0,0,1-1.54.993,5.431,5.431,0,0,1-2,.353H42.163v-9.64h3.673a5.385,5.385,0,0,1,2,.357,4.509,4.509,0,0,1,1.54.993,4.436,4.436,0,0,1,.993,1.523A5.213,5.213,0,0,1,50.723-9.693Zm-1.84,0a4.489,4.489,0,0,0-.21-1.423,2.95,2.95,0,0,0-.607-1.067,2.647,2.647,0,0,0-.96-.67,3.291,3.291,0,0,0-1.27-.233H43.963V-6.3h1.873a3.291,3.291,0,0,0,1.27-.233,2.647,2.647,0,0,0,.96-.67,2.95,2.95,0,0,0,.607-1.067A4.489,4.489,0,0,0,48.883-9.693ZM57.1-8.513,55.923-11.72q-.087-.213-.18-.507t-.187-.633q-.087.34-.18.637t-.18.517L54.03-8.513Zm3.167,3.64H58.877a.592.592,0,0,1-.38-.117.726.726,0,0,1-.22-.29l-.72-1.967H53.563l-.72,1.967a.639.639,0,0,1-.207.28.577.577,0,0,1-.38.127h-1.4l3.793-9.64h1.827Zm6.793-8.167H64.15v8.167H62.357V-13.04H59.45v-1.473h7.607Zm5.42,4.527L71.3-11.72q-.087-.213-.18-.507t-.187-.633q-.087.34-.18.637t-.18.517L69.41-8.513Zm3.167,3.64H74.257a.592.592,0,0,1-.38-.117.726.726,0,0,1-.22-.29l-.72-1.967H68.943l-.72,1.967a.639.639,0,0,1-.207.28.577.577,0,0,1-.38.127h-1.4l3.793-9.64h1.827ZM82.57-9.667a2.7,2.7,0,0,0,.86-.123,1.629,1.629,0,0,0,.61-.353,1.431,1.431,0,0,0,.363-.56,2.143,2.143,0,0,0,.12-.737,1.944,1.944,0,0,0-.12-.7,1.384,1.384,0,0,0-.36-.533,1.6,1.6,0,0,0-.607-.337,2.87,2.87,0,0,0-.867-.117H81.23v3.46Zm0-4.847a5.5,5.5,0,0,1,1.673.227,3.221,3.221,0,0,1,1.167.633,2.512,2.512,0,0,1,.683.973,3.353,3.353,0,0,1,.223,1.24,3.426,3.426,0,0,1-.233,1.283,2.663,2.663,0,0,1-.7,1,3.254,3.254,0,0,1-1.17.653,5.226,5.226,0,0,1-1.643.233H81.23v3.393H79.437v-9.64Zm10.767,8.16v1.48H87.69v-9.64h1.793v8.16Zm6.373-2.16L98.537-11.72q-.087-.213-.18-.507t-.187-.633q-.087.34-.18.637t-.18.517L96.643-8.513Zm3.167,3.64H101.49a.592.592,0,0,1-.38-.117.726.726,0,0,1-.22-.29l-.72-1.967H96.177l-.72,1.967A.639.639,0,0,1,95.25-5a.577.577,0,0,1-.38.127h-1.4l3.793-9.64H99.09Zm6.793-8.167h-2.907v8.167H104.97V-13.04h-2.907v-1.473h7.607Zm3.067-.047v2.853h3.613V-8.8h-3.613v3.927h-1.8v-9.64h6.08v1.427ZM127.59-9.693a5.389,5.389,0,0,1-.35,1.963,4.609,4.609,0,0,1-.99,1.563,4.5,4.5,0,0,1-1.54,1.03,5.213,5.213,0,0,1-2,.37,5.2,5.2,0,0,1-1.993-.37,4.533,4.533,0,0,1-1.543-1.03,4.625,4.625,0,0,1-1-1.563,5.343,5.343,0,0,1-.353-1.963,5.343,5.343,0,0,1,.353-1.963,4.625,4.625,0,0,1,1-1.563,4.533,4.533,0,0,1,1.543-1.03,5.2,5.2,0,0,1,1.993-.37,5.41,5.41,0,0,1,1.38.17,4.845,4.845,0,0,1,1.187.48,4.386,4.386,0,0,1,.97.753,4.579,4.579,0,0,1,.73.99,4.852,4.852,0,0,1,.457,1.187A5.646,5.646,0,0,1,127.59-9.693Zm-1.833,0a4.424,4.424,0,0,0-.213-1.423,3.051,3.051,0,0,0-.607-1.07,2.6,2.6,0,0,0-.957-.673,3.291,3.291,0,0,0-1.27-.233,3.292,3.292,0,0,0-1.27.233,2.628,2.628,0,0,0-.96.673,3.023,3.023,0,0,0-.61,1.07,4.424,4.424,0,0,0-.213,1.423,4.424,4.424,0,0,0,.213,1.423,2.988,2.988,0,0,0,.61,1.067,2.647,2.647,0,0,0,.96.67,3.292,3.292,0,0,0,1.27.233,3.291,3.291,0,0,0,1.27-.233,2.615,2.615,0,0,0,.957-.67,3.016,3.016,0,0,0,.607-1.067A4.424,4.424,0,0,0,125.757-9.693Zm6.327-.233a2.776,2.776,0,0,0,.883-.127,1.708,1.708,0,0,0,.62-.35,1.406,1.406,0,0,0,.363-.53,1.832,1.832,0,0,0,.12-.673,1.369,1.369,0,0,0-.483-1.127,2.312,2.312,0,0,0-1.477-.393h-1.147v3.2ZM136.7-4.873h-1.62a.711.711,0,0,1-.667-.36L132.383-8.32a.711.711,0,0,0-.25-.247.876.876,0,0,0-.4-.073h-.767v3.767H129.17v-9.64h2.94a6.112,6.112,0,0,1,1.683.2,3.22,3.22,0,0,1,1.153.57,2.23,2.23,0,0,1,.663.877,2.883,2.883,0,0,1,.213,1.123,2.912,2.912,0,0,1-.143.92,2.663,2.663,0,0,1-.413.787,2.786,2.786,0,0,1-.667.62,3.344,3.344,0,0,1-.9.42,1.753,1.753,0,0,1,.32.237,1.682,1.682,0,0,1,.267.323Zm11.5-9.64v9.64h-1.58V-11.1q0-.373.04-.807l-2.913,5.473a.673.673,0,0,1-.633.393h-.253a.673.673,0,0,1-.633-.393l-2.947-5.493q.02.22.033.433t.013.393v6.227h-1.58v-9.64H139.1q.12,0,.207.007a.559.559,0,0,1,.157.033.34.34,0,0,1,.127.087.741.741,0,0,1,.11.16l2.887,5.353q.113.213.21.44t.19.467q.093-.247.193-.477t.213-.443l2.847-5.34a.673.673,0,0,1,.113-.16.371.371,0,0,1,.13-.087.559.559,0,0,1,.157-.033q.087-.007.207-.007Z" transform="translate(111.083 24.206)"/>
    <path id="Path_823" data-name="Path 823" class="cls-2" d="M50.738-2.241,49.9-4.519q-.062-.152-.128-.36t-.133-.45q-.062.242-.128.452t-.128.367l-.829,2.269ZM52.988.345H52a.421.421,0,0,1-.27-.083.516.516,0,0,1-.156-.206l-.512-1.4H48.228l-.512,1.4a.454.454,0,0,1-.147.2.41.41,0,0,1-.27.09h-.995L49-6.5h1.3Zm3.3-1.028a1.683,1.683,0,0,0,.661-.123,1.354,1.354,0,0,0,.49-.346,1.529,1.529,0,0,0,.305-.54,2.223,2.223,0,0,0,.107-.71V-6.5h1.274v4.1a3.162,3.162,0,0,1-.2,1.13,2.57,2.57,0,0,1-.564.9,2.557,2.557,0,0,1-.893.587,3.158,3.158,0,0,1-1.184.211A3.172,3.172,0,0,1,55.1.21,2.557,2.557,0,0,1,54.2-.377a2.57,2.57,0,0,1-.564-.9,3.162,3.162,0,0,1-.2-1.13V-6.5h1.274v4.1a2.223,2.223,0,0,0,.107.71,1.534,1.534,0,0,0,.308.542,1.363,1.363,0,0,0,.493.348A1.682,1.682,0,0,0,56.284-.683Zm9.06-4.774H63.279v5.8H62.005v-5.8H59.94V-6.5h5.4ZM72.017-6.5V.345H70.739V-2.648H67.523V.345H66.244V-6.5h1.279v2.946h3.216V-6.5Zm8.056,3.424a3.828,3.828,0,0,1-.249,1.395,3.275,3.275,0,0,1-.7,1.111,3.2,3.2,0,0,1-1.094.732,3.7,3.7,0,0,1-1.421.263A3.691,3.691,0,0,1,75.191.158a3.221,3.221,0,0,1-1.1-.732,3.286,3.286,0,0,1-.708-1.111,3.8,3.8,0,0,1-.251-1.395,3.8,3.8,0,0,1,.251-1.395,3.286,3.286,0,0,1,.708-1.111,3.221,3.221,0,0,1,1.1-.732,3.691,3.691,0,0,1,1.416-.263,3.843,3.843,0,0,1,.98.121,3.442,3.442,0,0,1,.843.341,3.116,3.116,0,0,1,.689.535,3.253,3.253,0,0,1,.519.7,3.447,3.447,0,0,1,.324.843A4.011,4.011,0,0,1,80.074-3.079Zm-1.3,0A3.143,3.143,0,0,0,78.62-4.09a2.167,2.167,0,0,0-.431-.76,1.845,1.845,0,0,0-.68-.478,2.338,2.338,0,0,0-.9-.166,2.338,2.338,0,0,0-.9.166,1.867,1.867,0,0,0-.682.478,2.147,2.147,0,0,0-.433.76,3.143,3.143,0,0,0-.152,1.011,3.143,3.143,0,0,0,.152,1.011,2.123,2.123,0,0,0,.433.758,1.88,1.88,0,0,0,.682.476,2.338,2.338,0,0,0,.9.166,2.338,2.338,0,0,0,.9-.166,1.858,1.858,0,0,0,.68-.476,2.142,2.142,0,0,0,.431-.758A3.143,3.143,0,0,0,78.771-3.079Zm4.495-.166a1.972,1.972,0,0,0,.628-.09,1.213,1.213,0,0,0,.44-.249,1,1,0,0,0,.258-.377,1.3,1.3,0,0,0,.085-.478.973.973,0,0,0-.343-.8,1.642,1.642,0,0,0-1.049-.279H82.47v2.273ZM86.543.345H85.392a.5.5,0,0,1-.474-.256L83.479-2.1a.505.505,0,0,0-.178-.175.622.622,0,0,0-.287-.052H82.47V.345H81.2V-6.5h2.089a4.342,4.342,0,0,1,1.2.144,2.288,2.288,0,0,1,.819.4,1.584,1.584,0,0,1,.471.623,2.048,2.048,0,0,1,.152.8,2.068,2.068,0,0,1-.1.654,1.891,1.891,0,0,1-.294.559,1.979,1.979,0,0,1-.474.44,2.375,2.375,0,0,1-.642.3,1.245,1.245,0,0,1,.227.168,1.2,1.2,0,0,1,.189.23Z" transform="translate(66 32)"/>
  </g>
</svg>
